HIERARCHY
ROOT Hips
{
	OFFSET 0.000000 105.849998 0.000068
	CHANNELS 6 Xposition Yposition Zposition Yrotation Xrotation Zrotation
	JOINT RightUpLeg
	{
		OFFSET -11.500000 -1.849998 -0.000000
		CHANNELS 3 Yrotation Xrotation Zrotation
		JOINT RightLeg
		{
			OFFSET 0.000000 -48.000000 -0.000032
			CHANNELS 3 Yrotation Xrotation Zrotation
			JOINT RightFoot
			{
				OFFSET 0.000000 -48.000000 -0.000032
				CHANNELS 3 Yrotation Xrotation Zrotation
				End Site
				{
					OFFSET 0.000000 -8.000011 19.599997
				}
			}
		}
	}
	JOINT LeftUpLeg
	{
		OFFSET 11.500000 -1.849998 -0.000000
		CHANNELS 3 Yrotation Xrotation Zrotation
		JOINT LeftLeg
		{
			OFFSET 0.000000 -48.000000 -0.000032
			CHANNELS 3 Yrotation Xrotation Zrotation
			JOINT LeftFoot
			{
				OFFSET 0.000000 -48.000000 -0.000032
				CHANNELS 3 Yrotation Xrotation Zrotation
				End Site
				{
					OFFSET 0.000000 -8.000011 19.599997
				}
			}
		}
	}
	JOINT Spine
	{
		OFFSET 0.000000 16.653999 0.000012
		CHANNELS 3 Yrotation Xrotation Zrotation
		JOINT Spine1
		{
			OFFSET 0.000000 11.311996 0.000008
			CHANNELS 3 Yrotation Xrotation Zrotation
			JOINT Spine2
			{
				OFFSET 0.000000 11.779999 0.000008
				CHANNELS 3 Yrotation Xrotation Zrotation
				JOINT Spine3
				{
					OFFSET 0.000000 11.311996 0.000008
					CHANNELS 3 Yrotation Xrotation Zrotation
					JOINT Neck
					{
						OFFSET 0.000000 12.091003 0.000008
						CHANNELS 3 Yrotation Xrotation Zrotation
						JOINT Head
						{
							OFFSET 0.000000 9.000000 0.000004
							CHANNELS 3 Yrotation Xrotation Zrotation
							End Site
							{
								OFFSET 0.000000 18.000000 0.000012
							}
						}
					}
					JOINT RightShoulder
					{
						OFFSET -3.500000 8.061005 0.000004
						CHANNELS 3 Yrotation Xrotation Zrotation
						JOINT RightArm
						{
							OFFSET -14.000000 0.000000 0.000000
							CHANNELS 3 Yrotation Xrotation Zrotation
							JOINT RightForeArm
							{
								OFFSET -29.000000 0.000000 0.000000
								CHANNELS 3 Yrotation Xrotation Zrotation
								JOINT RightHand
								{
									OFFSET -28.000000 0.000000 0.000000
									CHANNELS 3 Yrotation Xrotation Zrotation
									JOINT RightHandThumb1
									{
										OFFSET -2.702003 0.205994 3.388000
										CHANNELS 3 Yrotation Xrotation Zrotation
										JOINT RightHandThumb2
										{
											OFFSET -3.998001 0.000000 0.000000
											CHANNELS 3 Yrotation Xrotation Zrotation
											JOINT RightHandThumb3
											{
												OFFSET -2.778000 0.000000 0.000000
												CHANNELS 3 Yrotation Xrotation Zrotation
												End Site
												{
													OFFSET -2.381996 0.000000 0.000000
												}
											}
										}
									}
									JOINT RightInHandIndex
									{
										OFFSET -3.500000 0.552002 2.148000
										CHANNELS 3 Yrotation Xrotation Zrotation
										JOINT RightHandIndex1
										{
											OFFSET -5.664001 -0.098999 1.085000
											CHANNELS 3 Yrotation Xrotation Zrotation
											JOINT RightHandIndex2
											{
												OFFSET -3.930000 0.000000 0.000000
												CHANNELS 3 Yrotation Xrotation Zrotation
												JOINT RightHandIndex3
												{
													OFFSET -2.227997 0.000000 0.000000
													CHANNELS 3 Yrotation Xrotation Zrotation
													End Site
													{
														OFFSET -1.959999 0.000000 0.000000
													}
												}
											}
										}
									}
									JOINT RightInHandMiddle
									{
										OFFSET -3.671997 0.561996 0.822000
										CHANNELS 3 Yrotation Xrotation Zrotation
										JOINT RightHandMiddle1
										{
											OFFSET -5.617996 -0.091003 0.341000
											CHANNELS 3 Yrotation Xrotation Zrotation
											JOINT RightHandMiddle2
											{
												OFFSET -4.288002 0.000000 0.000000
												CHANNELS 3 Yrotation Xrotation Zrotation
												JOINT RightHandMiddle3
												{
													OFFSET -2.688004 0.000000 0.000000
													CHANNELS 3 Yrotation Xrotation Zrotation
													End Site
													{
														OFFSET -2.143997 0.000000 0.000000
													}
												}
											}
										}
									}
									JOINT RightInHandRing
									{
										OFFSET -3.653999 0.584000 -0.140000
										CHANNELS 3 Yrotation Xrotation Zrotation
										JOINT RightHandRing1
										{
											OFFSET -5.031998 -0.024002 -0.520000
											CHANNELS 3 Yrotation Xrotation Zrotation
											JOINT RightHandRing2
											{
												OFFSET -3.737000 0.000000 0.000000
												CHANNELS 3 Yrotation Xrotation Zrotation
												JOINT RightHandRing3
												{
													OFFSET -2.593002 0.000000 0.000000
													CHANNELS 3 Yrotation Xrotation Zrotation
													End Site
													{
														OFFSET -2.015999 0.000000 0.000000
													}
												}
											}
										}
									}
									JOINT RightInHandPinky
									{
										OFFSET -3.431999 0.509995 -1.305000
										CHANNELS 3 Yrotation Xrotation Zrotation
										JOINT RightHandPinky1
										{
											OFFSET -4.496002 -0.024002 -1.184000
											CHANNELS 3 Yrotation Xrotation Zrotation
											JOINT RightHandPinky2
											{
												OFFSET -2.993004 0.000000 0.000000
												CHANNELS 3 Yrotation Xrotation Zrotation
												JOINT RightHandPinky3
												{
													OFFSET -1.890999 0.000000 0.000000
													CHANNELS 3 Yrotation Xrotation Zrotation
													End Site
													{
														OFFSET -1.786003 0.000000 0.000000
													}
												}
											}
										}
									}
								}
							}
						}
					}
					JOINT LeftShoulder
					{
						OFFSET 3.500000 8.061005 0.000004
						CHANNELS 3 Yrotation Xrotation Zrotation
						JOINT LeftArm
						{
							OFFSET 14.000000 0.000000 0.000000
							CHANNELS 3 Yrotation Xrotation Zrotation
							JOINT LeftForeArm
							{
								OFFSET 29.000000 0.000000 0.000000
								CHANNELS 3 Yrotation Xrotation Zrotation
								JOINT LeftHand
								{
									OFFSET 28.000000 0.000000 0.000000
									CHANNELS 3 Yrotation Xrotation Zrotation
									JOINT LeftHandThumb1
									{
										OFFSET 2.702003 0.205994 3.388000
										CHANNELS 3 Yrotation Xrotation Zrotation
										JOINT LeftHandThumb2
										{
											OFFSET 3.998001 0.000000 0.000000
											CHANNELS 3 Yrotation Xrotation Zrotation
											JOINT LeftHandThumb3
											{
												OFFSET 2.778000 0.000000 0.000000
												CHANNELS 3 Yrotation Xrotation Zrotation
												End Site
												{
													OFFSET 2.381996 0.000000 0.000000
												}
											}
										}
									}
									JOINT LeftInHandIndex
									{
										OFFSET 3.500000 0.552002 2.148000
										CHANNELS 3 Yrotation Xrotation Zrotation
										JOINT LeftHandIndex1
										{
											OFFSET 5.664001 -0.098999 1.085000
											CHANNELS 3 Yrotation Xrotation Zrotation
											JOINT LeftHandIndex2
											{
												OFFSET 3.930000 0.000000 0.000000
												CHANNELS 3 Yrotation Xrotation Zrotation
												JOINT LeftHandIndex3
												{
													OFFSET 2.227997 0.000000 0.000000
													CHANNELS 3 Yrotation Xrotation Zrotation
													End Site
													{
														OFFSET 1.959999 0.000000 0.000000
													}
												}
											}
										}
									}
									JOINT LeftInHandMiddle
									{
										OFFSET 3.671997 0.561996 0.822000
										CHANNELS 3 Yrotation Xrotation Zrotation
										JOINT LeftHandMiddle1
										{
											OFFSET 5.617996 -0.091003 0.341000
											CHANNELS 3 Yrotation Xrotation Zrotation
											JOINT LeftHandMiddle2
											{
												OFFSET 4.288002 0.000000 0.000000
												CHANNELS 3 Yrotation Xrotation Zrotation
												JOINT LeftHandMiddle3
												{
													OFFSET 2.688004 0.000000 0.000000
													CHANNELS 3 Yrotation Xrotation Zrotation
													End Site
													{
														OFFSET 2.143997 0.000000 0.000000
													}
												}
											}
										}
									}
									JOINT LeftInHandRing
									{
										OFFSET 3.653999 0.584000 -0.140000
										CHANNELS 3 Yrotation Xrotation Zrotation
										JOINT LeftHandRing1
										{
											OFFSET 5.031998 -0.024002 -0.520000
											CHANNELS 3 Yrotation Xrotation Zrotation
											JOINT LeftHandRing2
											{
												OFFSET 3.737000 0.000000 0.000000
												CHANNELS 3 Yrotation Xrotation Zrotation
												JOINT LeftHandRing3
												{
													OFFSET 2.593002 0.000000 0.000000
													CHANNELS 3 Yrotation Xrotation Zrotation
													End Site
													{
														OFFSET 2.015999 0.000000 0.000000
													}
												}
											}
										}
									}
									JOINT LeftInHandPinky
									{
										OFFSET 3.431999 0.509995 -1.305000
										CHANNELS 3 Yrotation Xrotation Zrotation
										JOINT LeftHandPinky1
										{
											OFFSET 4.496002 -0.024002 -1.184000
											CHANNELS 3 Yrotation Xrotation Zrotation
											JOINT LeftHandPinky2
											{
												OFFSET 2.993004 0.000000 0.000000
												CHANNELS 3 Yrotation Xrotation Zrotation
												JOINT LeftHandPinky3
												{
													OFFSET 1.890999 0.000000 0.000000
													CHANNELS 3 Yrotation Xrotation Zrotation
													End Site
													{
														OFFSET 1.786003 0.000000 0.000000
													}
												}
											}
										}
									}
								}
							}
						}
					}
				}
			}
		}
	}
}
MOTION
Frames: 6
Frame Time: 0.041667
0.000000 50.759937 -0.000022 -6.547561 2.667272 -0.000011 4.055879 11.788959 2.543406 -0.646924 11.021168 -0.376596 2.495717 -2.809460 -3.489928 11.004264 -25.260579 -5.598072 0.543269 9.347490 0.310691 -4.980828 -16.749381 3.942226 5.113269 0.010623 -0.237890 0.000000 -0.000000 -0.000000 0.000000 0.000000 -0.000000 0.000000 0.000001 -0.000000 1.070056 0.000473 -0.049847 -0.000007 -3.131922 0.000001 3.125003 -8.366150 29.793446 -6.735726 -9.429438 57.502775 13.356015 -21.264288 18.465987 11.754667 -3.820455 3.897126 0.000003 0.000007 0.000004 -0.000002 0.000004 -0.000001 -0.000002 0.000008 -0.000001 0.000001 0.000002 -0.000010 -0.000001 0.000006 -0.000007 -0.000001 0.000007 0.000002 0.000002 0.000000 0.000012 0.000002 -0.000002 -0.000006 0.000005 -0.000004 -0.000010 0.000010 -0.000000 -0.000010 -0.000011 -0.000004 0.000004 -0.000003 0.000006 0.000006 0.000008 -0.000005 0.000006 -0.000000 -0.000012 -0.000001 -0.000000 -0.000003 -0.000003 0.000000 0.000001 0.000003 0.000001 -0.000001 -0.000001 -0.000002 -0.000003 -0.000003 -0.000001 -0.000004 -0.000001 3.086983 8.305542 -30.433732 -6.113151 6.351614 -57.226675 2.888562 15.054242 -9.715209 0.000009 0.000023 -0.000047 -0.000003 0.000000 -0.000003 -0.000003 0.000000 -0.000001 -0.000002 0.000001 -0.000000 0.000008 -0.000009 0.000000 -0.000003 0.000001 0.000000 0.000003 -0.000006 0.000006 -0.000001 0.000001 0.000000 0.000003 -0.000007 -0.000005 -0.000001 -0.000008 -0.000000 0.000002 0.000002 0.000000 0.000002 0.000007 -0.000000 0.000000 0.000003 -0.000000 0.000003 0.000004 0.000001 -0.000003 -0.000002 0.000005 0.000001 -0.000004 -0.000006 0.000001 -0.000004 -0.000010 0.000001 0.000000 -0.000002 0.000004 0.000004 0.000002 0.000002 -0.000006 -0.000002 
0.000000 50.433018 -0.000023 -6.255797 2.667106 -0.000011 3.799661 9.907036 2.615406 -1.035962 16.912841 -0.638262 2.430537 -2.315464 -3.531774 10.713022 -28.095549 -5.644162 1.043670 16.997008 0.642918 -3.402885 4.039084 3.916476 4.885167 0.009988 -0.228248 0.000000 -0.000000 -0.000000 0.000000 -0.000000 -0.000000 0.000000 0.000000 -0.000000 1.022544 0.000392 -0.047633 -0.000006 -3.131922 0.000001 2.983782 -7.995031 29.798558 -6.444966 -9.080911 57.457436 13.022711 -20.469805 18.602990 12.482721 -5.948876 2.483374 -0.000005 0.000012 0.000002 0.000001 0.000000 0.000002 -0.000002 0.000006 -0.000007 -0.000003 0.000005 -0.000015 -0.000001 0.000001 -0.000003 -0.000003 0.000000 -0.000003 -0.000002 -0.000001 0.000016 0.000001 0.000005 -0.000004 0.000004 -0.000012 -0.000009 0.000001 0.000004 -0.000010 -0.000016 0.000005 0.000004 -0.000005 0.000004 0.000005 0.000004 0.000002 0.000005 -0.000002 -0.000009 -0.000005 -0.000004 0.000003 -0.000006 -0.000000 0.000002 -0.000002 0.000001 -0.000006 -0.000005 -0.000002 0.000004 -0.000003 -0.000008 0.000003 -0.000007 2.952267 7.934270 -30.409450 -6.113152 6.351611 -57.226665 2.445124 14.316545 -9.809377 0.528930 2.368719 -0.079057 0.000000 0.000003 -0.000004 -0.000001 0.000004 -0.000005 0.000004 0.000000 -0.000001 0.000009 -0.000001 0.000001 -0.000004 0.000006 0.000000 0.000004 -0.000005 0.000005 -0.000000 -0.000003 -0.000001 0.000003 0.000008 -0.000009 0.000006 -0.000006 -0.000001 -0.000002 0.000000 0.000001 0.000001 0.000002 -0.000002 0.000005 0.000005 -0.000003 0.000005 0.000001 0.000001 0.000004 -0.000003 0.000001 -0.000003 -0.000007 -0.000003 -0.000001 0.000004 -0.000009 0.000003 -0.000002 -0.000002 0.000005 0.000005 0.000006 0.000000 -0.000005 -0.000001 
0.000000 49.733479 -0.000022 -5.360891 2.665835 0.000059 2.963144 7.368956 2.744448 -1.814839 27.028546 -1.219274 2.043503 2.533972 -3.610360 9.632551 -30.958966 -5.558545 1.949176 28.373446 1.320204 -3.330016 0.137815 4.049691 4.185970 0.007122 -0.194833 -0.000000 0.000000 -0.000000 -0.000000 0.000000 -0.000000 -0.000000 0.000000 -0.000000 0.876687 0.000166 -0.040842 -0.000006 -3.131924 0.000001 2.551350 -6.856363 29.814875 -5.555842 -8.009695 57.329958 12.018586 -18.018070 18.990305 14.082019 -10.524783 -0.631413 -0.000018 0.000002 -0.000000 -0.000010 -0.000001 0.000000 0.000003 0.000004 -0.000000 -0.000004 -0.000004 -0.000010 0.000000 0.000006 0.000003 0.000000 -0.000003 -0.000001 0.000006 0.000001 0.000015 0.000001 -0.000009 0.000001 0.000013 0.000003 -0.000008 0.000008 -0.000001 -0.000005 -0.000006 0.000001 0.000006 -0.000017 -0.000002 0.000009 -0.000008 -0.000004 0.000007 -0.000001 -0.000011 -0.000007 -0.000007 -0.000000 -0.000010 -0.000006 -0.000001 -0.000000 0.000001 -0.000000 -0.000004 0.000003 0.000004 0.000005 -0.000006 -0.000002 -0.000004 2.537804 6.795257 -30.337576 -6.113154 6.351613 -57.226675 1.095209 12.040090 -10.060932 1.482445 7.533008 -0.274069 -0.000003 0.000004 -0.000000 -0.000002 0.000006 -0.000001 0.000001 -0.000004 -0.000000 0.000007 -0.000002 0.000003 0.000001 0.000002 -0.000002 0.000008 -0.000003 0.000005 -0.000003 0.000005 0.000000 -0.000003 -0.000002 0.000000 0.000002 -0.000003 -0.000000 -0.000003 0.000003 0.000000 0.000000 0.000001 0.000000 0.000000 -0.000002 0.000001 0.000001 0.000001 0.000001 -0.000003 0.000003 0.000002 -0.000005 -0.000015 -0.000002 -0.000005 0.000002 -0.000003 -0.000003 -0.000007 -0.000001 0.000002 0.000007 0.000003 -0.000005 -0.000007 -0.000000 
-0.000000 49.406574 -0.000024 -4.235049 2.664745 0.000086 1.879911 5.554758 2.880233 -2.442907 33.717164 -1.727980 1.465083 10.234143 -3.723801 8.138627 -30.121151 -5.260807 2.512195 34.313173 1.786280 -3.499086 -6.683878 4.091787 3.306522 0.004825 -0.153929 0.000000 0.000000 -0.000000 0.000000 0.000000 -0.000000 0.000000 0.000000 -0.000000 0.692921 -0.000067 -0.032283 -0.000005 -3.131922 0.000001 2.008566 -5.423515 29.841602 -4.442519 -6.657868 57.194587 10.789855 -14.905518 19.409885 14.523718 -12.845096 -2.052965 -0.000006 0.000001 0.000008 -0.000003 0.000003 0.000003 0.000001 0.000003 0.000000 -0.000002 -0.000001 -0.000012 0.000005 0.000003 0.000000 -0.000004 0.000003 0.000003 -0.000013 -0.000005 0.000012 0.000000 -0.000002 -0.000000 -0.000000 -0.000000 -0.000006 0.000005 0.000001 -0.000006 -0.000005 0.000002 0.000002 -0.000010 0.000010 0.000008 0.000001 -0.000011 0.000007 -0.000001 -0.000015 0.000001 0.000002 -0.000001 -0.000007 -0.000002 -0.000004 0.000005 -0.000003 -0.000004 -0.000000 -0.000005 -0.000000 0.000007 -0.000010 -0.000001 -0.000000 2.013690 5.362013 -30.253346 -6.113150 6.351618 -57.226675 -0.585158 9.150708 -10.298764 1.457493 10.166602 -0.605793 -0.000008 0.000001 -0.000004 -0.000002 0.000003 0.000001 -0.000001 -0.000001 -0.000000 0.000002 -0.000005 0.000000 -0.000004 0.000002 -0.000003 0.000004 -0.000004 0.000004 -0.000003 -0.000003 -0.000002 -0.000001 0.000005 -0.000008 -0.000000 -0.000005 -0.000001 0.000002 -0.000000 0.000000 0.000004 -0.000003 -0.000001 0.000002 0.000001 -0.000004 0.000003 -0.000001 0.000002 -0.000000 -0.000002 0.000001 -0.000004 -0.000007 -0.000005 -0.000005 -0.000002 -0.000009 -0.000002 0.000003 0.000002 0.000001 0.000003 0.000004 -0.000002 -0.000001 -0.000003 
0.000000 49.805561 -0.000024 -2.996004 2.663753 0.000089 0.650648 -1.979253 3.227600 -3.585692 43.225593 -2.712892 0.631036 20.959655 -4.010559 6.508287 -26.146316 -4.860784 2.445515 33.712560 1.729742 -3.552263 -10.078214 4.056702 2.338932 0.002219 -0.108931 0.000000 0.000000 -0.000000 0.000000 -0.000000 0.000000 0.000000 0.000000 -0.000000 0.490391 -0.000263 -0.022848 -0.000003 -3.131922 0.000000 1.413012 -3.846161 29.878167 -3.222744 -5.165863 57.075827 9.474699 -11.450466 19.788767 12.502719 -10.818413 -0.953863 0.000004 0.000001 0.000006 0.000001 0.000005 0.000002 0.000007 0.000003 -0.000005 0.000002 -0.000009 -0.000007 -0.000001 0.000003 0.000000 0.000008 0.000002 0.000002 -0.000008 -0.000004 0.000012 0.000002 -0.000000 0.000000 0.000014 -0.000011 -0.000007 0.000001 -0.000000 -0.000010 -0.000001 0.000003 -0.000001 -0.000002 -0.000006 0.000006 0.000005 -0.000006 0.000009 0.000001 -0.000011 -0.000001 0.000000 0.000002 -0.000001 0.000003 -0.000001 0.000009 -0.000004 -0.000011 -0.000007 0.000002 0.000003 -0.000001 -0.000005 -0.000000 0.000001 1.433538 3.784350 -30.169000 -6.113152 6.351617 -57.226675 -2.418519 5.945365 -10.460803 -0.307099 7.909804 -1.166164 -0.000001 -0.000003 -0.000004 -0.000001 0.000010 -0.000001 -0.000000 -0.000002 0.000001 0.000003 -0.000011 -0.000001 -0.000000 0.000007 -0.000001 0.000002 0.000001 0.000005 -0.000000 0.000000 -0.000003 -0.000000 -0.000001 -0.000007 0.000002 -0.000004 0.000000 0.000001 0.000005 -0.000000 0.000002 0.000004 -0.000000 0.000000 -0.000002 -0.000005 0.000002 0.000008 -0.000001 0.000000 -0.000002 0.000003 -0.000000 -0.000004 -0.000005 0.000001 -0.000003 -0.000010 -0.000003 0.000002 0.000002 -0.000001 0.000003 0.000003 -0.000003 0.000000 -0.000003 
0.000000 50.763042 -0.000022 -1.502646 2.663144 0.000053 -1.072070 -16.386206 3.861071 -5.623458 54.481093 -4.577691 -0.829604 36.904735 -4.862705 4.650943 -19.744567 -4.405325 1.899806 27.981806 1.285671 -3.478155 -10.752206 3.945446 1.173016 -0.001432 -0.054683 -0.000000 -0.000000 -0.000000 -0.000000 -0.000000 0.000000 -0.000000 -0.000000 -0.000000 0.246034 -0.000410 -0.011464 -0.000001 -3.131921 0.000000 0.698023 -1.944672 29.932980 -1.758595 -3.363255 56.975239 7.930002 -7.256379 20.135565 8.726257 -5.500034 1.057089 -0.000005 0.000008 0.000009 -0.000008 0.000000 0.000004 -0.000000 0.000000 0.000001 -0.000003 -0.000002 -0.000011 0.000008 0.000006 -0.000000 0.000002 -0.000005 -0.000001 -0.000005 0.000000 0.000011 -0.000004 -0.000004 0.000002 0.000009 -0.000001 -0.000011 0.000001 -0.000000 -0.000007 -0.000005 0.000003 0.000006 -0.000006 -0.000003 0.000010 -0.000004 -0.000005 0.000012 0.000006 -0.000005 0.000001 0.000002 0.000000 -0.000005 -0.000000 0.000004 0.000003 0.000003 -0.000006 -0.000000 -0.000002 -0.000003 0.000003 -0.000002 -0.000002 -0.000005 0.730078 1.882606 -30.078726 -6.113151 6.351613 -57.226658 -4.617367 2.059119 -10.518799 -3.448966 2.129101 -1.706270 -0.000007 -0.000001 -0.000001 -0.000001 0.000002 -0.000002 0.000000 -0.000000 -0.000001 -0.000000 -0.000005 -0.000001 -0.000002 0.000003 -0.000001 0.000003 -0.000000 0.000007 0.000001 -0.000001 -0.000003 -0.000004 -0.000003 -0.000003 0.000002 -0.000005 0.000005 0.000001 -0.000000 0.000002 0.000002 -0.000003 -0.000002 -0.000002 0.000000 0.000001 -0.000001 0.000004 0.000000 0.000000 0.000000 0.000001 -0.000004 -0.000004 -0.000006 -0.000003 -0.000001 -0.000007 -0.000005 -0.000005 -0.000002 0.000002 -0.000001 0.000001 -0.000003 -0.000005 -0.000003 
